<svg xmlns="http://www.w3.org/2000/svg" viewBox="0 0 1024 1024" role="img" aria-labelledby="title desc">
  <title id="title">7unici professional logo option two</title>
  <desc id="desc">Clean white surface 7unici logo with blue teal mark.</desc>
  <defs>
    <linearGradient id="g" x1="250" y1="190" x2="770" y2="826" gradientUnits="userSpaceOnUse">
      <stop offset="0" stop-color="#2563EB"/>
      <stop offset="1" stop-color="#14B8A6"/>
    </linearGradient>
    <filter id="shadow" x="-20%" y="-20%" width="140%" height="140%">
      <feDropShadow dx="0" dy="20" stdDeviation="30" flood-color="#2563EB" flood-opacity="0.18"/>
    </filter>
  </defs>
  <rect width="1024" height="1024" rx="224" fill="#F8FAFC"/>
  <rect x="128" y="128" width="768" height="768" rx="184" fill="#FFFFFF" stroke="#E2E8F0" stroke-width="8" filter="url(#shadow)"/>
  <path d="M314 306h402c18 0 32 14 32 32v52c0 12-4 23-12 33L532 680c-8 10-12 22-12 35v49c0 18-14 32-32 32h-82c-18 0-32-14-32-32v-76c0-33 11-66 32-92l138-174H314c-18 0-32-14-32-32v-52c0-18 14-32 32-32Z" fill="url(#g)"/>
  <path d="M626 556c58 0 106 47 106 106v102c0 18-14 32-32 32h-62c-18 0-32-14-32-32V662c0-12-10-22-22-22h-38l67-84h13Z" fill="#0F766E" opacity="0.88"/>
  <path d="M328 306h352" stroke="#FFFFFF" stroke-width="18" stroke-linecap="round" opacity="0.28"/>
  <text x="512" y="884" text-anchor="middle" font-family="Poppins, Inter, Arial, sans-serif" font-size="54" font-weight="800" fill="#0F172A">7unici</text>
</svg>
